<?xml version="1.0" encoding="UTF-8" standalone="no"?>
<!-- Created with Inkscape (http://www.inkscape.org/) -->

<svg
   xmlns:dc="http://purl.org/dc/elements/1.1/"
   xmlns:cc="http://creativecommons.org/ns#"
   xmlns:rdf="http://www.w3.org/1999/02/22-rdf-syntax-ns#"
   xmlns:svg="http://www.w3.org/2000/svg"
   xmlns="http://www.w3.org/2000/svg"
   xmlns:sodipodi="http://sodipodi.sourceforge.net/DTD/sodipodi-0.dtd"
   xmlns:inkscape="http://www.inkscape.org/namespaces/inkscape"
   version="1.1"
   id="svg118"
   width="277"
   height="93"
   viewBox="0 0 277 93"
   sodipodi:docname="logo-tablet.svg"
   inkscape:version="0.92.1 r15371">
  <metadata
     id="metadata124">
    <rdf:RDF>
      <cc:Work
         rdf:about="">
        <dc:format>image/svg+xml</dc:format>
        <dc:type
           rdf:resource="http://purl.org/dc/dcmitype/StillImage" />
        <dc:title />
      </cc:Work>
    </rdf:RDF>
  </metadata>
  <defs
     id="defs122">
    <filter
       style="color-interpolation-filters:sRGB"
       inkscape:label="Drop Shadow"
       id="filter53">
      <feFlood
         flood-opacity="0.498039"
         flood-color="rgb(0,0,0)"
         result="flood"
         id="feFlood43" />
      <feComposite
         in="flood"
         in2="SourceGraphic"
         operator="in"
         result="composite1"
         id="feComposite45" />
      <feGaussianBlur
         in="composite1"
         stdDeviation="0"
         result="blur"
         id="feGaussianBlur47" />
      <feOffset
         dx="6"
         dy="6"
         result="offset"
         id="feOffset49" />
      <feComposite
         in="offset"
         in2="offset"
         operator="atop"
         result="composite2"
         id="feComposite51" />
    </filter>
    <filter
       style="color-interpolation-filters:sRGB"
       inkscape:label="Drop Shadow"
       id="filter65">
      <feFlood
         flood-opacity="0.498039"
         flood-color="rgb(0,0,0)"
         result="flood"
         id="feFlood55" />
      <feComposite
         in="flood"
         in2="SourceGraphic"
         operator="in"
         result="composite1"
         id="feComposite57" />
      <feGaussianBlur
         in="composite1"
         stdDeviation="0"
         result="blur"
         id="feGaussianBlur59" />
      <feOffset
         dx="6"
         dy="6"
         result="offset"
         id="feOffset61" />
      <feComposite
         in="offset"
         in2="offset"
         operator="atop"
         result="composite2"
         id="feComposite63" />
    </filter>
    <filter
       style="color-interpolation-filters:sRGB"
       inkscape:label="Drop Shadow"
       id="filter77">
      <feFlood
         flood-opacity="0.498039"
         flood-color="rgb(0,0,0)"
         result="flood"
         id="feFlood67" />
      <feComposite
         in="flood"
         in2="SourceGraphic"
         operator="in"
         result="composite1"
         id="feComposite69" />
      <feGaussianBlur
         in="composite1"
         stdDeviation="0"
         result="blur"
         id="feGaussianBlur71" />
      <feOffset
         dx="6"
         dy="6"
         result="offset"
         id="feOffset73" />
      <feComposite
         in="offset"
         in2="offset"
         operator="atop"
         result="composite2"
         id="feComposite75" />
    </filter>
    <filter
       style="color-interpolation-filters:sRGB"
       inkscape:label="Drop Shadow"
       id="filter89">
      <feFlood
         flood-opacity="0.498039"
         flood-color="rgb(0,0,0)"
         result="flood"
         id="feFlood79" />
      <feComposite
         in="flood"
         in2="SourceGraphic"
         operator="in"
         result="composite1"
         id="feComposite81" />
      <feGaussianBlur
         in="composite1"
         stdDeviation="0"
         result="blur"
         id="feGaussianBlur83" />
      <feOffset
         dx="6"
         dy="6"
         result="offset"
         id="feOffset85" />
      <feComposite
         in="offset"
         in2="offset"
         operator="atop"
         result="composite2"
         id="feComposite87" />
    </filter>
  </defs>
  <sodipodi:namedview
     pagecolor="#ffffff"
     bordercolor="#666666"
     borderopacity="1"
     objecttolerance="10"
     gridtolerance="10"
     guidetolerance="10"
     inkscape:pageopacity="0"
     inkscape:pageshadow="2"
     inkscape:window-width="1366"
     inkscape:window-height="705"
     id="namedview120"
     showgrid="false"
     inkscape:zoom="1.9400764"
     inkscape:cx="100.99083"
     inkscape:cy="71.914387"
     inkscape:window-x="-8"
     inkscape:window-y="-8"
     inkscape:window-maximized="1"
     inkscape:current-layer="svg118" />
  <text
     xml:space="preserve"
     style="font-style:normal;font-variant:normal;font-weight:normal;font-stretch:normal;font-size:21.92833138px;line-height:1.25;font-family:'Snap ITC';-inkscape-font-specification:'Snap ITC';letter-spacing:0px;word-spacing:0px;fill:#000000;fill-opacity:1;stroke:none;stroke-width:0.68526036"
     x="16.693434"
     y="60.251911"
     id="text15"><tspan
       sodipodi:role="line"
       id="tspan13"
       x="16.693434"
       y="79.653343"
       style="stroke-width:0.68526036" /></text>
  <text
     xml:space="preserve"
     style="font-style:normal;font-variant:normal;font-weight:normal;font-stretch:normal;font-size:21.92833138px;line-height:1.25;font-family:'Snap ITC';-inkscape-font-specification:'Snap ITC';letter-spacing:0px;word-spacing:0px;fill:#000000;fill-opacity:1;stroke:none;stroke-width:0.68526036"
     x="22.094328"
     y="68.829803"
     id="text19"><tspan
       sodipodi:role="line"
       id="tspan17"
       x="22.094328"
       y="88.231239"
       style="stroke-width:0.68526036" /></text>
  <text
     xml:space="preserve"
     style="font-style:normal;font-variant:normal;font-weight:normal;font-stretch:normal;font-size:25.22092628px;line-height:1.25;font-family:'Snap ITC';-inkscape-font-specification:'Snap ITC';letter-spacing:0px;word-spacing:0px;fill:#000000;fill-opacity:1;stroke:none;stroke-width:0.63052315;filter:url(#filter53)"
     x="12.999934"
     y="33.839329"
     id="text11"><tspan
       sodipodi:role="line"
       id="tspan9"
       x="12.999934"
       y="33.839329"
       style="stroke-width:0.63052315">Proger#Team</tspan></text>
  <text
     xml:space="preserve"
     style="font-style:normal;font-variant:normal;font-weight:normal;font-stretch:normal;font-size:20.17674065px;line-height:1.25;font-family:'Snap ITC';-inkscape-font-specification:'Snap ITC';letter-spacing:0px;word-spacing:0px;fill:#000000;fill-opacity:1;stroke:none;stroke-width:0.63052315;filter:url(#filter65)"
     x="17.092447"
     y="56.932816"
     id="text15-0"><tspan
       sodipodi:role="line"
       id="tspan13-5"
       x="17.092447"
       y="74.7845"
       style="stroke-width:0.63052315" /></text>
  <text
     xml:space="preserve"
     style="font-style:normal;font-variant:normal;font-weight:normal;font-stretch:normal;font-size:20.17674065px;line-height:1.25;font-family:'Snap ITC';-inkscape-font-specification:'Snap ITC';letter-spacing:0px;word-spacing:0px;fill:#000000;fill-opacity:1;stroke:none;stroke-width:0.63052315;filter:url(#filter77)"
     x="22.06193"
     y="64.825523"
     id="text19-7"><tspan
       sodipodi:role="line"
       id="tspan17-8"
       x="22.06193"
       y="82.677208"
       style="stroke-width:0.63052315" /></text>
  <text
     xml:space="preserve"
     style="font-style:normal;font-variant:normal;font-weight:normal;font-stretch:normal;font-size:20.17674065px;line-height:1.25;font-family:'Snap ITC';-inkscape-font-specification:'Snap ITC';letter-spacing:0px;word-spacing:0px;fill:#000000;fill-opacity:1;stroke:none;stroke-width:0.63052315;filter:url(#filter89)"
     x="15.923167"
     y="65.410164"
     id="text23"><tspan
       sodipodi:role="line"
       id="tspan21"
       x="15.923167"
       y="65.410164"
       style="stroke-width:0.63052315">Mobile Development</tspan></text>
  <path
     style="fill:#ffffff;stroke-width:0.18421052"
     d="m 18.768638,33.965317 c -2.33026,-0.234366 -4.51817,-0.431873 -4.86202,-0.438903 l -0.62517,-0.01278 0.81318,-0.620912 0.81319,-0.620912 0.89489,-6.754523 c 0.49218,-3.714987 0.8635,-6.779477 0.82514,-6.809979 -0.0384,-0.0305 -0.83398,-0.375277 -1.76805,-0.766168 -0.93407,-0.390891 -1.67832,-0.730702 -1.65388,-0.755136 0.0244,-0.02443 2.7367,-0.349226 6.02726,-0.72176 5.33557,-0.604057 6.13933,-0.655304 7.42942,-0.473688 1.9603,0.275966 3.40068,0.953797 4.50254,2.118856 1.29316,1.367322 1.6035,2.316484 1.6035,4.904222 0,1.98184 -0.0351,2.187841 -0.54505,3.195146 -1.14831,2.268457 -3.23866,3.488104 -5.99443,3.497535 -1.89654,0.0065 -3.29214,-0.374809 -4.60464,-1.258056 -0.52728,-0.354833 -0.97855,-0.645151 -1.00282,-0.645151 -0.0243,0 0.13068,0.998116 0.34435,2.218035 l 0.38848,2.218035 0.82547,0.526411 c 0.45402,0.289525 1.23995,0.78194 1.74653,1.094254 l 0.92106,0.567844 -0.92106,-0.01813 c -0.50658,-0.01 -2.82763,-0.209879 -5.15789,-0.444244 z m 2.31757,-10.406677 c 1.36629,-0.697027 2.65969,-2.338327 2.75212,-3.492378 0.10699,-1.335948 -0.21778,-1.846175 -1.16838,-1.835578 -1.2685,0.01414 -1.43516,0.264476 -2.06736,3.105452 -0.31803,1.429201 -0.50518,2.598547 -0.41587,2.598547 0.0893,0 0.49408,-0.169219 0.89949,-0.376043 z"
     id="path14"
     inkscape:connector-curvature="0" />
  <path
     style="fill:#ffffff;stroke-width:0.18421052"
     d="m 34.222198,33.448391 0.5325,-0.450474 0.33369,-5.130301 c 0.18353,-2.821666 0.33765,-5.311449 0.34249,-5.532852 0.006,-0.296407 -0.16116,-0.464011 -0.63581,-0.635646 -0.35453,-0.128203 -0.5825,-0.288751 -0.50657,-0.356774 0.0759,-0.06802 1.28663,-0.175525 2.69046,-0.238894 2.38175,-0.107511 2.5437,-0.09369 2.42187,0.206693 -0.19637,0.484202 -0.82956,2.303691 -0.82956,2.383778 0,0.03849 0.51741,-0.360614 1.14981,-0.886899 0.6324,-0.526285 1.56496,-1.150208 2.07237,-1.386495 1.62431,-0.756403 3.57153,-0.49974 4.74644,0.625628 l 0.50808,0.486665 0.73534,-0.718033 c 0.40443,-0.394917 0.73533,-0.658225 0.73533,-0.585126 0,0.209901 -1.70585,7.024885 -1.78057,7.113483 -0.0369,0.04373 -0.33522,-0.174947 -0.66298,-0.485956 -0.87369,-0.829035 -1.72505,-1.196294 -3.01282,-1.299664 -2.10826,-0.169231 -3.63659,1.027365 -3.87415,3.033246 -0.13577,1.146378 0.13782,2.018768 0.9785,3.120128 0.35221,0.461414 0.61398,0.863398 0.58172,0.893298 -0.0323,0.0299 -1.63365,0.108431 -3.55865,0.174515 l -3.5,0.120153 z"
     id="path16"
     inkscape:connector-curvature="0" />
  <path
     style="fill:#ffffff;stroke-width:0.18421052"
     d="m 53.676528,33.825045 c -2.03728,-0.590013 -3.59107,-1.830226 -4.42893,-3.535099 -0.38914,-0.791833 -0.45265,-1.179491 -0.45265,-2.763158 0,-1.599613 0.0629,-1.975476 0.47791,-2.855263 0.6338,-1.343662 1.83148,-2.507883 3.29841,-3.206267 1.12333,-0.534799 1.32836,-0.570049 3.31579,-0.570049 1.92951,0 2.20888,0.04443 3.13282,0.498202 1.32412,0.650316 2.5119,1.831799 3.11041,3.093903 0.41822,0.881931 0.48045,1.251754 0.48045,2.855264 0,1.564252 -0.0657,1.975462 -0.43532,2.726235 -0.62441,1.26815 -1.9535,2.545947 -3.37711,3.246791 -1.02134,0.502801 -1.49086,0.618011 -2.76169,0.677653 -0.92854,0.04358 -1.85738,-0.02262 -2.36009,-0.168212 z m 0.49727,-7.495625 c 0.29701,0 0.72758,-0.260448 1.1823,-0.715171 0.61533,-0.615333 0.71517,-0.829 0.71517,-1.530581 0,-0.448476 -0.11054,-0.966581 -0.24564,-1.151345 -0.21903,-0.299544 -0.32379,-0.311121 -0.96711,-0.106872 -1.08206,0.343549 -2.10938,0.989866 -2.93199,1.844598 l -0.73684,0.765618 0.54496,0.438344 c 0.53602,0.431158 1.24412,0.64398 1.72669,0.518964 0.13493,-0.03496 0.45554,-0.06355 0.71246,-0.06355 z"
     id="path18"
     inkscape:connector-curvature="0" />
  <path
     style="fill:#ffffff;stroke-width:0.18421052"
     d="m 69.610738,39.138348 c -0.70921,-0.130222 -1.79963,-0.44529 -2.42316,-0.70015 l -1.13369,-0.463381 -0.66236,0.545976 c -0.3643,0.300286 -0.66236,0.497112 -0.66236,0.437391 0,-0.103441 2.01001,-4.182545 2.12209,-4.30655 0.0295,-0.03265 0.53812,0.309875 1.13025,0.761167 1.45047,1.105477 2.52212,1.482924 3.92268,1.381616 0.88873,-0.06428 1.24646,-0.191068 1.80241,-0.638796 1.42311,-1.146074 1.9494,-2.862125 1.45658,-4.749345 -0.32864,-1.258487 -0.44803,-1.415855 -0.71383,-0.940885 -0.3902,0.697245 -1.69815,1.976218 -2.50386,2.4484 -1.10733,0.648937 -3.31663,0.802537 -4.58361,0.318673 -3.86077,-1.474442 -4.75123,-7.710758 -1.55483,-10.88925 1.08358,-1.077513 1.89875,-1.422308 3.56151,-1.506421 1.20733,-0.06107 1.5598,-0.0052 2.39473,0.379718 0.53847,0.248234 1.41746,0.847616 1.95332,1.331961 0.53585,0.484345 1.01236,0.842547 1.0589,0.796005 0.0465,-0.04654 -0.12248,-0.594296 -0.3756,-1.217232 -0.25312,-0.622935 -0.46022,-1.183882 -0.46022,-1.246548 0,-0.132511 4.2479,0.102339 4.49467,0.248493 0.0911,0.05398 -0.13681,0.253364 -0.50658,0.443066 -0.36976,0.189702 -0.6723,0.421137 -0.6723,0.514299 0,0.09316 0.29022,1.351329 0.64493,2.795925 1.5346,6.24979 1.22522,9.957566 -1.0355,12.410163 -0.94715,1.027533 -2.09261,1.64282 -3.56514,1.915034 -1.33756,0.247262 -2.03636,0.23413 -3.68903,-0.06933 z m 4.1026,-11.888235 0.6026,-0.367404 -0.38542,-0.755484 c -0.67685,-1.326726 -2.37751,-2.929384 -3.10853,-2.929384 -0.30674,0 -0.75072,1.034955 -0.75072,1.75 0,0.831329 0.37404,1.566971 1.11278,2.188584 0.70424,0.592578 1.67246,0.636098 2.52929,0.113688 z"
     id="path20"
     inkscape:connector-curvature="0" />
  <path
     style="fill:#ffffff;stroke-width:0.18421052"
     d="m 85.763428,33.872532 c -2.08336,-0.372563 -3.85076,-1.547146 -4.73783,-3.148668 -0.50357,-0.909169 -0.54643,-1.131036 -0.54643,-2.828655 0,-1.622129 0.0602,-1.970516 0.50376,-2.917435 0.90905,-1.940428 2.24546,-3.155042 4.1936,-3.8114 2.27184,-0.765416 5.60794,-0.277139 7.50735,1.098787 2.36905,1.716133 2.119,4.838618 -0.51396,6.418053 -0.5536,0.332087 -1.33812,0.695953 -1.74339,0.808591 -0.88372,0.24562 -3.03046,0.300476 -4.05263,0.103558 l -0.73684,-0.141952 0.73684,0.46359 c 2.59289,1.631337 5.95802,1.457313 7.87162,-0.407071 0.37807,-0.368351 0.72058,-0.633668 0.76114,-0.589593 0.0405,0.04407 0.13012,1.074872 0.19905,2.290662 l 0.12531,2.210526 -0.40113,-0.644737 c -0.22063,-0.354605 -0.42452,-0.670781 -0.45311,-0.702612 -0.0286,-0.03183 -0.62014,0.228251 -1.31457,0.577962 -0.69443,0.349711 -1.71839,0.77155 -2.27546,0.937419 -1.25643,0.374106 -3.82148,0.515781 -5.12332,0.282975 z m 0.6368,-8.028478 c 1.04667,-0.496678 1.46844,-1.783245 0.92788,-2.830424 -0.18436,-0.357157 -0.35643,-0.447482 -0.7666,-0.40241 -1.08225,0.118924 -2.59349,1.217624 -3.15832,2.296162 -0.26604,0.50802 -0.26181,0.515081 0.5223,0.870954 0.97104,0.440713 1.64669,0.458654 2.47474,0.06572 z"
     id="path22"
     inkscape:connector-curvature="0" />
  <path
     style="fill:#ffffff;stroke-width:0.18421052"
     d="m 96.530168,33.392875 0.57732,-0.523982 0.30214,-5.065789 c 0.16618,-2.786184 0.30014,-5.246937 0.29768,-5.46834 -0.003,-0.290991 -0.18311,-0.467148 -0.64908,-0.635646 -0.35454,-0.128203 -0.5825,-0.288751 -0.50658,-0.356774 0.20293,-0.181821 5.203822,-0.378203 5.203822,-0.204351 0,0.08134 -0.2067,0.675323 -0.45933,1.319969 -0.25264,0.644646 -0.42704,1.204377 -0.38758,1.243846 0.0395,0.03947 0.49143,-0.300955 1.00435,-0.756499 1.42117,-1.262204 2.44995,-1.794595 3.68406,-1.9065 1.29849,-0.117744 2.22354,0.15423 3.07887,0.905216 l 0.6256,0.549289 0.68386,-0.563697 c 0.37613,-0.310034 0.7116,-0.535961 0.7455,-0.50206 0.0339,0.0339 -0.3303,1.638231 -0.80935,3.565179 -0.86477,3.478536 -0.87338,3.500502 -1.20609,3.077531 -0.1843,-0.234306 -0.84418,-0.680402 -1.46639,-0.991324 -1.76712,-0.883043 -3.48807,-0.763705 -4.63494,0.321406 -1.4842,1.404273 -1.53269,3.594931 -0.1191,5.379743 0.32694,0.41279 0.56372,0.779314 0.52617,0.814497 -0.0375,0.03518 -1.64326,0.122086 -3.568262,0.193118 l -3.5,0.129149 z"
     id="path24"
     inkscape:connector-curvature="0" />
  <path
     style="fill:#ffffff;stroke-width:0.18421052"
     d="m 115.59982,33.889779 -2.64251,-0.09983 1.03066,-0.504577 1.03066,-0.504578 v -1.38358 -1.383581 l -1.42763,6.82e-4 -1.42763,6.81e-4 -0.34426,0.837068 c -0.18934,0.460405 -0.37987,0.801474 -0.4234,0.757949 -0.0806,-0.08056 0.41145,-4.266708 0.59758,-5.084423 l 0.10211,-0.44857 0.22295,0.44857 c 0.20028,0.402966 0.35543,0.454015 1.52605,0.502134 l 1.30311,0.05356 0.11977,-1.416883 c 0.0659,-0.779287 0.11977,-1.777404 0.11977,-2.218039 v -0.801154 h -1.27514 -1.27514 l -0.74998,0.875 c -0.68592,0.800254 -0.74942,0.83566 -0.7433,0.414474 0.0115,-0.787606 0.655,-5.883367 0.75575,-5.984115 0.0525,-0.05251 0.46144,0.441519 0.90874,1.097834 0.80738,1.184634 0.81964,1.193334 1.68828,1.197686 l 0.875,0.0044 v -1.57715 -1.57715 l -1.13712,-0.516178 -1.13711,-0.516178 4.49896,-0.09144 c 2.47443,-0.05029 4.51954,-0.07554 4.5447,-0.0561 0.0252,0.01944 -0.3161,0.295205 -0.75836,0.612813 -0.67101,0.481884 -0.82423,0.708078 -0.92568,1.366534 -0.0669,0.433986 -0.17003,1.058473 -0.22925,1.387749 l -0.10766,0.598684 h 2.03365 c 1.515,0 2.10065,-0.06698 2.2963,-0.262633 0.14445,-0.144448 0.31988,-0.8214 0.38985,-1.504337 l 0.12721,-1.241704 -0.79116,-0.82229 -0.79117,-0.82229 0.62171,0.116101 c 0.34194,0.06386 1.8755,0.11943 3.4079,0.123499 l 2.78618,0.0074 -1.01316,0.436695 c -0.92072,0.396854 -1.02479,0.501217 -1.1407,1.143918 -0.0701,0.388972 -0.13232,1.100972 -0.13815,1.582222 l -0.0106,0.875 h 1.47114 1.47115 l 0.61355,-1.21703 0.61355,-1.21703 0.22596,3.266027 c 0.12427,1.796314 0.18898,3.303006 0.14378,3.348204 -0.0452,0.0452 -0.23247,-0.172245 -0.41616,-0.483207 l -0.33398,-0.565385 h -1.8945 -1.89449 v 2.486842 2.486842 l 0.50658,0.0016 c 0.27862,8.84e-4 0.92913,0.05238 1.44559,0.114436 l 0.939,0.112836 0.57667,-0.989437 0.57666,-0.989436 0.001,2.855263 c 0.001,2.984888 -0.006,3.001644 -0.74082,1.611842 l -0.36509,-0.690791 h -1.46994 -1.46994 l 0.002,1.335527 0.002,1.335526 1.05676,0.705296 1.05675,0.705296 -1.28947,-0.103758 c -0.70921,-0.05707 -2.63652,-0.158728 -4.2829,-0.225912 -1.64638,-0.06719 -2.99342,-0.185955 -2.99342,-0.263934 0,-0.07798 0.37303,-0.28424 0.82895,-0.458358 0.63916,-0.244098 0.82895,-0.410398 0.82895,-0.726367 0,-0.225384 0.0527,-0.794386 0.11714,-1.264447 l 0.11714,-0.854658 h -2.40006 c -2.68642,0 -2.51627,-0.09499 -2.71771,1.517253 -0.0996,0.797541 -0.0691,1.057086 0.13895,1.180195 0.14668,0.0868 0.62597,0.46867 1.06509,0.848604 l 0.79839,0.69079 -1.09237,-0.03833 c -0.6008,-0.02108 -2.28149,-0.08325 -3.73486,-0.138158 z m 8.26675,-6.593254 c 0.003,-0.07599 0.12493,-1.008553 0.27048,-2.072368 0.14556,-1.063816 0.26727,-2.079277 0.27048,-2.256579 0.005,-0.289898 -0.22287,-0.322369 -2.26472,-0.322369 h -2.27057 l -0.32356,1.888158 c -0.17796,1.038487 -0.36612,2.07051 -0.41814,2.293384 -0.0887,0.380046 -0.0219,0.409317 1.07439,0.471085 2.37308,0.1337 3.65596,0.133241 3.66164,-0.0013 z"
     id="path26"
     inkscape:connector-curvature="0" />
  <path
     style="fill:#ffffff;stroke-width:0.18421052"
     d="m 142.55811,33.96451 c -2.12764,-0.127738 -4.03421,-0.244566 -4.23685,-0.259618 -0.20263,-0.01505 0.31546,-0.243644 1.15132,-0.507983 0.83585,-0.264338 1.51974,-0.548903 1.51974,-0.632365 0,-0.120416 -2.16636,-7.875208 -3.79292,-13.577293 -0.15483,-0.542797 -0.32393,-0.944497 -0.37576,-0.892665 -0.0518,0.05183 -0.32941,2.22217 -0.61683,4.822974 -0.28743,2.600804 -0.55162,4.757761 -0.5871,4.793237 -0.0355,0.03548 -0.55346,-2.334038 -1.15108,-5.265588 -0.59761,-2.931549 -1.03517,-5.381493 -0.97235,-5.444319 0.11595,-0.115941 17.34611,-1.342734 18.97625,-1.351115 l 0.88811,-0.0046 -2.82165,5.511635 c -1.55191,3.031399 -2.83806,5.495221 -2.85813,5.475159 -0.0201,-0.02006 -0.20338,-1.888906 -0.40737,-4.152989 -0.20399,-2.264082 -0.41039,-4.156008 -0.45867,-4.20428 -0.10527,-0.105276 -0.0824,-0.190811 -1.94511,7.267486 -0.81546,3.265067 -1.48266,6.049871 -1.48266,6.188453 0,0.14101 1.03428,0.748573 2.34869,1.379679 2.7331,1.312287 3.04712,1.227876 -3.17763,0.854158 z"
     id="path28"
     inkscape:connector-curvature="0" />
  <path
     style="fill:#ffffff;stroke-width:0.18421052"
     d="m 156.466,33.827852 c -2.12253,-0.487401 -3.65184,-1.537766 -4.51935,-3.103988 -0.50358,-0.909169 -0.54644,-1.131036 -0.54644,-2.828655 0,-1.614431 0.0612,-1.972687 0.49516,-2.898638 0.68234,-1.455911 1.29527,-2.209191 2.41617,-2.969419 1.40484,-0.952802 2.78698,-1.290692 4.81453,-1.177 3.68737,0.206762 6.07677,1.964332 6.07677,4.469885 0,2.175181 -1.94464,3.891778 -4.93555,4.356765 -1.03192,0.160429 -1.62319,0.159972 -2.4291,-0.0019 -0.58585,-0.117655 -1.09859,-0.180512 -1.13942,-0.139681 -0.17022,0.170222 2.33822,1.230525 3.34787,1.415124 1.91511,0.35015 3.83031,-0.184025 5.10212,-1.423049 0.36828,-0.358787 0.71122,-0.582657 0.76209,-0.497488 0.0509,0.08517 0.149,1.108142 0.21806,2.273274 l 0.12557,2.118421 -0.40234,-0.644737 c -0.22128,-0.354605 -0.42572,-0.670781 -0.4543,-0.702612 -0.0286,-0.03183 -0.62015,0.228251 -1.31458,0.577962 -0.69444,0.349711 -1.71839,0.772178 -2.27546,0.938814 -1.36535,0.408419 -4.07212,0.52846 -5.3418,0.2369 z m 1.18013,-8.148816 c 0.83436,-0.546689 1.09451,-2.198586 0.4656,-2.956378 -0.56702,-0.683214 -3.04554,0.743434 -3.78888,2.180895 -0.26462,0.511719 -0.26027,0.519062 0.52369,0.884872 0.8955,0.41786 2.06463,0.372179 2.79959,-0.109389 z"
     id="path30"
     inkscape:connector-curvature="0" />
  <path
     style="fill:#ffffff;stroke-width:0.18421052"
     d="m 170.14749,33.496142 c -1.45787,-0.721633 -2.65117,-2.577782 -2.90245,-4.514673 -0.16624,-1.281342 0.18633,-3.625693 0.72084,-4.793233 0.55859,-1.220119 1.82331,-2.60511 2.77644,-3.040472 0.82484,-0.376764 2.3915,-0.445824 3.44929,-0.152048 1.14398,0.317711 3.13295,2.109424 3.5067,3.158917 0.0471,0.132317 0.13192,0.198771 0.18844,0.147675 0.0565,-0.0511 -0.0571,-0.872477 -0.25256,-1.825291 -0.19543,-0.952814 -0.33394,-1.749369 -0.30781,-1.770122 0.0261,-0.02075 0.95936,0.07132 2.07383,0.20461 1.11447,0.133288 2.19211,0.24814 2.39474,0.255227 0.24008,0.0084 0.0957,0.136673 -0.41448,0.368253 l -0.78289,0.355369 0.006,1.160322 c 0.003,0.638178 0.0817,2.984007 0.17389,5.212954 l 0.16762,4.052632 0.58672,0.493775 0.58671,0.493775 -0.62244,0.102627 c -1.1764,0.193963 -3.50482,0.475612 -3.93194,0.475612 h -0.42757 l 0.44989,-1.771715 c 0.24744,-0.974443 0.41385,-1.807751 0.36981,-1.851794 -0.044,-0.04404 -0.25588,0.20436 -0.47074,0.552009 -0.58004,0.938539 -1.93962,2.117771 -3.02342,2.622379 -1.27691,0.594516 -3.18505,0.62247 -4.31488,0.06321 z m 6.39373,-5.620934 c 0.40731,-0.162975 0.74057,-0.360766 0.74057,-0.439535 0,-0.07877 -0.33752,-0.648659 -0.75004,-1.266419 -0.83359,-1.248304 -2.08809,-2.418782 -2.59243,-2.418782 -0.46049,0 -0.73019,0.599454 -0.73826,1.640929 -0.0123,1.59266 0.86866,2.616849 2.37306,2.758755 0.12459,0.01175 0.55979,-0.111974 0.9671,-0.274948 z"
     id="path32"
     inkscape:connector-curvature="0" />
  <path
     style="fill:#ffffff;stroke-width:0.18421052"
     d="m 183.32896,33.696677 c 0.23581,-0.19653 0.63362,-0.506566 0.88402,-0.688969 l 0.45527,-0.331641 -0.13046,-5.313883 -0.13045,-5.313883 -0.75357,-0.342237 c -0.64826,-0.294413 -0.6892,-0.344303 -0.29303,-0.357024 0.25329,-0.0081 1.39309,-0.118843 2.53289,-0.246022 1.44177,-0.160873 2.07171,-0.171618 2.07018,-0.03531 -0.001,0.107758 -0.12456,0.651845 -0.27413,1.209082 -0.40705,1.516545 -0.34558,1.594405 0.45708,0.578963 1.10791,-1.40162 2.31072,-1.997856 3.82529,-1.896215 0.69567,0.04669 1.83228,1.236578 2.17936,2.281531 0.34324,1.033387 0.28579,1.053318 1.17468,-0.407514 1.24487,-2.045866 3.85798,-2.51989 5.43707,-0.986297 2.20647,2.142896 2.28139,6.316141 0.17743,9.883524 -0.34787,0.589827 -0.63248,1.096658 -0.63248,1.12629 0,0.02963 0.39375,0.206178 0.875,0.392325 l 0.875,0.338449 -0.73685,0.125752 c -0.40526,0.06916 -1.63887,0.185529 -2.74136,0.258589 l -2.00451,0.132836 0.56958,-0.710169 c 1.67522,-2.088722 1.43256,-5.223327 -0.40436,-5.223327 -1.67968,0 -2.55219,2.190942 -1.69461,4.255304 0.10879,0.261881 -0.0893,0.286085 -1.77483,0.216885 -2.37678,-0.09758 -2.43537,-0.114628 -2.16028,-0.62864 0.11738,-0.219318 0.21341,-0.788388 0.21341,-1.264602 0,-1.349437 -0.60046,-2.210526 -1.54146,-2.210526 -0.81868,0 -1.25539,0.309736 -1.64424,1.166178 -0.47267,1.041027 -0.44415,1.914645 0.0974,2.984355 0.24982,0.493451 0.4246,0.926796 0.38841,0.962988 -0.0801,0.08009 -4.17947,0.404769 -5.07946,0.402304 l -0.64474,-0.0018 0.42875,-0.357327 z"
     id="path34"
     inkscape:connector-curvature="0" />
  <path
     style="fill:#ffffff;stroke-width:0.18421052"
     d="m 20.794948,65.303697 -4.23684,-0.397506 0.69079,-0.425002 c 0.37994,-0.233751 0.69079,-0.443531 0.69079,-0.466178 0,-0.02265 0.24869,-2.433136 0.55263,-5.356644 0.30395,-2.923508 0.55263,-5.426696 0.55263,-5.562641 0,-0.135945 -0.43519,-0.446002 -0.9671,-0.689015 -0.53191,-0.243013 -0.83583,-0.448634 -0.67538,-0.456935 0.16044,-0.0083 1.94268,-0.221216 3.96052,-0.473144 2.01784,-0.251927 3.89055,-0.459164 4.16158,-0.460526 0.48252,-0.0024 0.50525,0.05117 1.09248,2.576472 0.32984,1.418421 0.65023,2.578947 0.71199,2.578947 0.0618,0 0.3621,-1.01546 0.66743,-2.256579 l 0.55514,-2.256579 2.56904,0.05639 c 1.41297,0.03101 3.31509,0.116031 4.22694,0.188928 l 1.65789,0.13254 -1.01316,0.340294 c -0.55723,0.187161 -1.07018,0.392275 -1.13987,0.455808 -0.0697,0.06353 0.12136,2.519462 0.42456,5.45762 0.60102,5.824215 0.47187,5.399768 1.91268,6.285697 l 0.73684,0.453071 -5.06579,-0.119913 c -2.78618,-0.06595 -5.17482,-0.179293 -5.30809,-0.251869 -0.16379,-0.08919 0.0207,-0.271454 0.56911,-0.562413 l 0.81142,-0.430457 0.88841,-4.160742 c 0.48862,-2.288408 0.92527,-4.264361 0.97033,-4.391005 0.0451,-0.126645 0.0109,-0.227235 -0.0759,-0.223533 -0.0868,0.0037 -1.06971,1.53462 -2.18418,3.402039 -1.11448,1.86742 -2.07571,3.397944 -2.13608,3.401165 -0.0604,0.0032 -0.92745,-1.744862 -1.92686,-3.884627 -0.9994,-2.139765 -1.84195,-3.815911 -1.87233,-3.724769 -0.0544,0.163204 1.37998,10.401219 1.46865,10.482604 0.0251,0.023 0.58438,0.291974 1.24293,0.59771 l 1.19737,0.555884 -0.73684,-0.0088 c -0.40526,-0.0048 -2.64342,-0.187669 -4.97368,-0.406298 z"
     id="path36"
     inkscape:connector-curvature="0" />
  <path
     style="fill:#ffffff;stroke-width:0.18421052"
     d="m 42.159518,65.245597 c -2.25513,-0.807031 -3.58825,-2.600362 -3.58825,-4.826955 0,-2.798363 1.9059,-4.94479 4.74731,-5.34642 2.56946,-0.363191 4.74547,0.600014 5.8448,2.587192 0.48548,0.877583 0.55239,1.178002 0.55071,2.472637 -0.002,1.727366 -0.32926,2.549065 -1.46793,3.688606 -1.54379,1.544954 -4.08733,2.140421 -6.08664,1.42494 z m 1.76247,-6.41127 c 0.42989,-0.41186 0.54402,-0.68015 0.54402,-1.278845 0,-1.035982 -0.23413,-1.230786 -1.10847,-0.9223 -0.92926,0.327863 -2.12234,1.131207 -2.47157,1.664203 -0.26602,0.405989 -0.25317,0.454133 0.22117,0.828599 0.71997,0.568373 2.06235,0.429284 2.81485,-0.291657 z"
     id="path38"
     inkscape:connector-curvature="0" />
  <path
     style="fill:#ffffff;stroke-width:0.18421052"
     d="m 51.245658,64.958808 c 0.57793,-0.596268 0.58876,-0.639519 0.58837,-2.348684 -2.2e-4,-0.957677 -0.0551,-3.797243 -0.12186,-6.310147 l -0.12146,-4.568917 -0.46634,-0.244342 c -0.43819,-0.229592 -0.38914,-0.251065 0.81265,-0.355723 3.30578,-0.287886 4.2379,-0.31069 3.81774,-0.0934 -0.4666,0.241305 -0.56121,0.499361 -1.34199,3.660246 -0.31283,1.266447 -0.61838,2.467665 -0.67901,2.669374 -0.0703,0.233845 0.29519,-0.0086 1.00856,-0.669051 1.72243,-1.594664 3.35309,-2.000609 5.01316,-1.248002 1.07694,0.488239 1.59379,0.984306 2.13666,2.050765 0.97243,1.910338 0.39561,4.56103 -1.2938,5.945368 -1.49722,1.226865 -2.83944,1.607903 -6.79368,1.928644 -3.4298,0.278201 -3.25891,0.30599 -2.559,-0.416131 z m 4.73539,-4.26304 c 0.74316,-0.310512 1.37803,-1.250825 1.37901,-2.042466 6.8e-4,-0.55477 -0.43313,-1.376514 -0.72668,-1.376514 -0.32691,0 -2.00644,1.684509 -2.30333,2.310157 -0.34975,0.737034 -0.1976,1.107831 0.51118,1.245803 0.2206,0.04294 0.42448,0.08937 0.45306,0.103165 0.0286,0.0138 0.33763,-0.09427 0.68676,-0.240145 z"
     id="path40"
     inkscape:connector-curvature="0" />
  <path
     style="fill:#ffffff;stroke-width:0.18421052"
     d="m 63.636848,65.192776 c 0.43818,-0.171318 0.85688,-0.468224 0.93046,-0.65979 0.15276,-0.397742 0.78591,-8.167226 0.67463,-8.27851 -0.0401,-0.04014 -0.60713,-0.278409 -1.25998,-0.529488 l -1.18701,-0.456508 1.49045,-0.009 c 0.81975,-0.005 2.76778,-0.05353 4.32895,-0.107959 l 2.8385,-0.09895 -1.10526,0.439402 c -0.6079,0.241671 -1.12417,0.555608 -1.14728,0.697639 -0.0231,0.142031 0.22759,2.121278 0.5571,4.398326 l 0.59911,4.140089 0.73238,0.209917 c 0.69609,0.199518 0.63655,0.215549 -1.20184,0.323614 -1.06382,0.06253 -3.08456,0.142727 -4.49055,0.178207 l -2.55633,0.06451 z"
     id="path42"
     inkscape:connector-curvature="0" />
  <path
     style="fill:#ffffff;stroke-width:0.18421052"
     d="m 72.926528,65.118663 c 0.40527,-0.259361 0.81219,-0.471991 0.90428,-0.47251 0.15101,-8.47e-4 0.004,-11.403636 -0.14856,-11.556629 -0.0331,-0.03306 -0.4234,-0.122123 -0.86742,-0.197924 -0.78008,-0.13317 -0.68615,-0.172258 2.78377,-1.158427 1.9751,-0.561334 3.61138,-1.008567 3.63617,-0.993852 0.0453,0.02687 -1.52644,12.473209 -1.68874,13.373076 -0.0764,0.423529 -6.4e-4,0.508725 0.64036,0.720274 1.03298,0.340916 0.90042,0.54938 -0.34936,0.54938 -0.59198,0 -2.10481,0.04684 -3.36184,0.104089 l -2.2855,0.104089 z"
     id="path44"
     inkscape:connector-curvature="0" />
  <path
     style="fill:#ffffff;stroke-width:0.18421052"
     d="m 66.167638,53.967211 c -0.96171,-0.174478 -1.92573,-0.675392 -2.08161,-1.081631 -0.0561,-0.146282 0.02,-0.45233 0.16929,-0.680107 0.8262,-1.260943 5.42068,-1.369942 6.75731,-0.160311 1.29246,1.169662 -1.93494,2.450001 -4.84499,1.922049 z"
     id="path46"
     inkscape:connector-curvature="0" />
  <path
     style="fill:#ffffff;stroke-width:0.18421052"
     d="m 84.073718,65.27044 c -2.46411,-0.662105 -3.75156,-2.241057 -3.76247,-4.614381 -0.005,-1.14749 0.0767,-1.480396 0.63356,-2.572013 0.70299,-1.378157 1.88009,-2.438388 3.11939,-2.809692 0.96663,-0.28961 3.27628,-0.259929 4.32462,0.05558 1.79435,0.540021 3.05725,1.859333 3.04683,3.182941 -0.007,0.857241 -0.65615,2.021868 -1.44673,2.594563 -1.05137,0.761605 -2.15001,1.021658 -3.89053,0.920901 -0.81097,-0.04695 -1.47449,-0.05901 -1.47449,-0.02682 0,0.0322 0.4352,0.279433 0.96711,0.549414 1.92151,0.975304 4.30346,0.766469 5.75065,-0.504179 l 0.60008,-0.526879 0.1158,0.963984 c 0.0637,0.530191 0.11431,1.295563 0.11249,1.700826 l -0.003,0.736842 -0.31465,-0.507518 c -0.17306,-0.279135 -0.35736,-0.48204 -0.40957,-0.450901 -0.0522,0.03114 -0.63374,0.311653 -1.29229,0.623365 -2.09018,0.989341 -4.09865,1.215414 -6.0765,0.683969 z m 1.46705,-6.616535 c 0.50241,-0.502112 0.63874,-1.737298 0.23617,-2.139865 -0.58085,-0.580852 -3.30825,1.152507 -3.14588,1.999323 0.0796,0.415275 1.17344,0.812164 1.90074,0.689677 0.30394,-0.05119 0.75798,-0.2983 1.00897,-0.549135 z"
     id="path48"
     inkscape:connector-curvature="0" />
  <path
     style="fill:#ffffff;stroke-width:0.18421052"
     d="m 102.73942,64.926947 c 0.89577,-0.342335 1.67331,-0.66706 1.72786,-0.721611 0.12966,-0.129663 -1.40507,-11.77535 -1.57136,-11.923613 -0.07,-0.06242 -0.5821,-0.414721 -1.13799,-0.782895 -1.26179,-0.835713 -1.49822,-0.830118 4.98985,-0.118084 5.61983,0.616748 6.54202,0.88586 7.96653,2.324775 1.23624,1.248733 1.62506,2.312398 1.61408,4.415504 -0.0174,3.328841 -2.05679,5.617692 -5.88963,6.609985 -1.04274,0.269959 -7.00282,0.834801 -8.68329,0.822922 -0.54758,-0.0039 -0.3993,-0.09835 0.98395,-0.626983 z m 5.55603,-5.110134 c 1.49572,-1.316589 1.95188,-3.057484 1.22064,-4.658446 -0.3219,-0.704758 -1.47958,-2.013493 -1.63957,-1.853503 -0.0421,0.04207 -0.23158,1.429606 -0.42113,3.083417 -0.18955,1.65381 -0.38384,3.276336 -0.43175,3.605612 -0.11899,0.817838 0.19047,0.77475 1.27181,-0.17708 z"
     id="path50"
     inkscape:connector-curvature="0" />
  <path
     style="fill:#ffffff;stroke-width:0.18421052"
     d="m 121.3739,65.319595 c -1.91165,-0.497919 -3.18676,-1.571433 -3.69925,-3.114397 -0.8691,-2.616621 0.78044,-5.965119 3.37386,-6.848786 1.12502,-0.383334 3.42877,-0.374831 4.64243,0.01714 1.26736,0.409311 2.52511,1.527631 2.77915,2.471057 0.40199,1.492894 -0.35772,2.813966 -2.11603,3.679579 -1.10582,0.544393 -1.27996,0.575763 -2.85808,0.514844 -1.62134,-0.06259 -1.66657,-0.05358 -1.28431,0.255798 0.57909,0.468677 2.1169,0.876699 3.30423,0.876699 1.19059,0 2.71196,-0.652304 3.31785,-1.422563 l 0.36909,-0.469227 v 0.734662 c 0,0.404065 0.0459,1.264915 0.10201,1.913001 l 0.102,1.178338 -0.31052,-0.552632 c -0.17079,-0.303947 -0.33667,-0.582811 -0.36863,-0.619697 -0.032,-0.03688 -0.34422,0.109762 -0.69391,0.325883 -1.70658,1.054725 -4.7941,1.546281 -6.65989,1.060305 z m 1.33552,-6.61615 c 0.41342,-0.384632 0.56055,-1.384277 0.30266,-2.056328 -0.30711,-0.80032 -2.4503,0.282559 -3.12485,1.578879 -0.24662,0.473951 -0.2336,0.497448 0.43198,0.779492 0.83835,0.355256 1.81659,0.231639 2.39021,-0.302043 z"
     id="path52"
     inkscape:connector-curvature="0" />
  <path
     style="fill:#ffffff;stroke-width:0.18421052"
     d="m 135.37822,65.428242 c -1.61868,-0.03078 -3.01178,-0.124697 -3.09578,-0.208697 -0.084,-0.084 0.10057,-0.257646 0.41015,-0.38588 0.30959,-0.128234 0.56417,-0.285267 0.56574,-0.348962 0.002,-0.06369 -0.72376,-1.92981 -1.61185,-4.146923 -1.24519,-3.108642 -1.70954,-4.074419 -2.02916,-4.220357 -0.22796,-0.104085 -0.41448,-0.24371 -0.41448,-0.310277 0,-0.143543 6.98876,-0.813534 7.11974,-0.682547 0.0495,0.04949 -0.16836,0.242584 -0.48411,0.429103 -0.41792,0.246867 -0.54999,0.43968 -0.48546,0.708738 0.0487,0.203286 0.31052,1.550861 0.58171,2.994611 0.27119,1.44375 0.54607,2.623637 0.61086,2.621971 0.13149,-0.0034 2.052,-4.944723 2.052,-5.27967 0,-0.117088 -0.21869,-0.372191 -0.48597,-0.566894 l -0.48598,-0.354007 2.54142,-0.121884 c 1.39778,-0.06704 2.9635,-0.11822 3.47939,-0.113743 l 0.93798,0.0081 -0.66456,0.351225 c -0.57008,0.301291 -0.99823,0.943568 -3.01151,4.517627 -1.29082,2.291522 -2.31809,4.189219 -2.28281,4.217104 0.0353,0.02789 0.43717,0.270111 0.89309,0.538278 l 0.82895,0.487576 -1.01316,-0.03928 c -0.55724,-0.0216 -2.33753,-0.06447 -3.9562,-0.09525 z"
     id="path54"
     inkscape:connector-curvature="0" />
  <path
     style="fill:#ffffff;stroke-width:0.18421052"
     d="m 147.62635,65.27044 c -2.45368,-0.659299 -3.75382,-2.245141 -3.7596,-4.585757 -0.006,-2.254466 1.09526,-4.074752 3.05711,-5.0551 0.98162,-0.490525 1.32206,-0.563321 2.63439,-0.563321 2.51083,0 4.34529,0.798504 5.06201,2.203393 0.47153,0.924291 0.47114,1.669691 -0.001,2.595888 -0.78591,1.540521 -2.53831,2.303437 -4.96787,2.162792 -0.81097,-0.04695 -1.47449,-0.05901 -1.47449,-0.02682 0,0.0322 0.43519,0.279433 0.9671,0.549414 1.92151,0.975304 4.30347,0.766469 5.75066,-0.504179 l 0.60008,-0.526879 0.11579,0.963984 c 0.0637,0.530191 0.1132,1.295563 0.11002,1.700826 l -0.006,0.736842 -0.2808,-0.517978 c -0.15444,-0.284888 -0.33763,-0.49165 -0.4071,-0.459471 -0.0695,0.03218 -0.55991,0.286585 -1.08987,0.565346 -1.90347,1.001217 -4.32811,1.293628 -6.31029,0.761018 z m 1.01192,-6.256576 c 0.72621,-0.344607 1.09631,-1.117814 0.91977,-1.921566 -0.16497,-0.751146 -0.47817,-0.850201 -1.47932,-0.46786 -0.86921,0.331953 -1.97387,1.470297 -1.88436,1.941824 0.0488,0.25729 1.02149,0.702827 1.58591,0.726445 0.13666,0.0057 0.52276,-0.119761 0.858,-0.278843 z"
     id="path56"
     inkscape:connector-curvature="0" />
  <path
     style="fill:#ffffff;stroke-width:0.18421052"
     d="m 156.68247,65.348741 c 0.16972,-0.133653 0.56412,-0.384589 0.87645,-0.557636 l 0.56787,-0.314631 -0.11912,-5.672211 c -0.0655,-3.119717 -0.13761,-5.695304 -0.16021,-5.723527 -0.0226,-0.02822 -0.40486,-0.114583 -0.84944,-0.191909 -0.78361,-0.136293 -0.69847,-0.171889 2.78377,-1.163845 1.97566,-0.562788 3.60329,-1.015245 3.61697,-1.005459 0.0245,0.01754 -1.46271,11.631774 -1.68164,13.132479 l -0.11271,0.772582 0.74659,0.223681 c 0.41062,0.123025 0.74658,0.293455 0.74658,0.378734 0,0.08528 -0.55954,0.155429 -1.24342,0.15589 -0.68388,4.61e-4 -2.19671,0.04764 -3.36184,0.104848 -1.7742,0.08711 -2.06828,0.06452 -1.80985,-0.138996 z"
     id="path58"
     inkscape:connector-curvature="0" />
  <path
     style="fill:#ffffff;stroke-width:0.18421052"
     d="m 167.97531,65.245597 c -1.74475,-0.624382 -2.85518,-1.723116 -3.32747,-3.292411 -1.08244,-3.596675 1.44884,-6.892503 5.31814,-6.92444 1.61984,-0.01337 2.56375,0.255579 3.64057,1.0373 1.67716,1.217543 2.43446,3.728296 1.74795,5.795181 -0.38672,1.164306 -1.6613,2.529851 -2.93499,3.144458 -1.2201,0.588751 -3.17459,0.694261 -4.4442,0.239912 z m 1.07943,-5.931208 c 0.7877,-0.299482 1.22705,-0.929367 1.22705,-1.759178 0,-0.416554 -0.0924,-0.849802 -0.2054,-0.962774 -0.40926,-0.409259 -2.45282,0.631281 -3.32468,1.692862 -0.23249,0.283087 -0.25625,0.433576 -0.0985,0.623937 0.44565,0.537771 1.55879,0.725564 2.40153,0.405153 z"
     id="path60"
     inkscape:connector-curvature="0" />
  <path
     style="fill:#ffffff;stroke-width:0.18421052"
     d="m 176.67509,69.38863 c 0.35351,-0.387024 0.39233,-0.78046 0.58617,-5.940789 0.29808,-7.935094 0.31068,-7.610997 -0.30184,-7.765494 l -0.50658,-0.127776 0.4652,-0.125052 c 0.58852,-0.158201 3.86375,-0.419204 3.86375,-0.307902 0,0.04566 -0.20724,0.551612 -0.46053,1.124344 -0.25329,0.572733 -0.46052,1.093331 -0.46052,1.156885 0,0.06355 0.3523,-0.236189 0.78289,-0.666095 1.1208,-1.11901 2.29139,-1.670489 3.54585,-1.670489 1.30734,0 2.05959,0.319061 2.83534,1.202585 0.89962,1.024612 1.17051,1.817155 1.16302,3.402678 -0.009,1.923821 -0.54871,3.299999 -1.76991,4.513691 -1.8304,1.819149 -4.18436,1.883353 -6.28611,0.171453 -0.55436,-0.451529 -1.00792,-0.734139 -1.00792,-0.628023 0,0.106117 0.34147,1.341694 0.75883,2.745728 0.65429,2.201125 0.82558,2.586221 1.24342,2.795486 0.45057,0.225663 0.37468,0.251613 -1.0812,0.369689 -0.86119,0.06984 -2.05689,0.135216 -2.65711,0.145272 l -1.09132,0.01828 z m 5.59059,-8.801513 c 1.0264,-0.549313 1.25705,-3.310329 0.27654,-3.310329 -0.37169,0 -1.80901,1.464508 -2.16684,2.207825 -0.28328,0.588455 -0.28452,0.669162 -0.0149,0.967105 0.32762,0.362017 1.34644,0.434424 1.90518,0.135399 z"
     id="path62"
     inkscape:connector-curvature="0" />
  <path
     style="fill:#ffffff;stroke-width:0.18421052"
     d="m 189.53179,65.130547 c 0.30395,-0.259648 0.6148,-0.475069 0.69079,-0.478713 0.17041,-0.0082 0.17667,-2.189779 0.0169,-5.881473 -0.11937,-2.757877 -0.1286,-2.805686 -0.58833,-3.046565 -0.51374,-0.269177 -0.72362,-0.218203 2.44079,-0.592794 l 0.90223,-0.106803 -0.11934,0.573663 c -0.0656,0.315515 -0.17171,0.843071 -0.23573,1.172347 l -0.11639,0.598684 0.68882,-0.789248 c 0.79322,-0.908876 1.86009,-1.513383 2.67091,-1.513383 0.7286,0 1.77805,0.951001 2.1042,1.906805 l 0.24207,0.709436 0.40204,-0.650503 c 1.28235,-2.074899 3.25223,-2.540004 4.68586,-1.106372 1.61777,1.617767 1.65724,4.995535 0.0906,7.755503 l -0.55067,0.970133 0.6799,0.28408 c 0.37394,0.156243 0.65021,0.309907 0.61394,0.341473 -0.0363,0.03157 -0.96108,0.115417 -2.05509,0.186334 l -1.98913,0.128939 0.56149,-0.994914 c 0.74304,-1.316586 0.78762,-2.689958 0.10935,-3.368235 -0.50441,-0.504406 -0.61377,-0.528029 -1.27704,-0.275856 -0.84799,0.322408 -1.33455,1.90224 -0.95457,3.099459 0.12055,0.37982 0.0725,0.408455 -0.68601,0.408455 -0.44861,0 -1.19735,-0.05232 -1.66386,-0.116261 -0.74555,-0.102188 -0.8267,-0.156463 -0.67045,-0.448416 0.31066,-0.580467 0.20582,-1.74471 -0.20403,-2.265744 -0.37621,-0.478282 -1.13086,-0.644549 -1.5631,-0.34439 -0.86483,0.600569 -1.10144,2.431798 -0.45186,3.497179 l 0.36502,0.598684 -0.78019,0.0011 c -0.4291,6.06e-4 -1.48479,0.05024 -2.34597,0.110291 l -1.56579,0.109188 z"
     id="path64"
     inkscape:connector-curvature="0" />
  <path
     style="fill:#ffffff;stroke-width:0.18421052"
     d="m 209.77843,65.369632 c -1.27954,-0.308762 -2.67415,-1.27301 -3.29266,-2.276579 -0.5101,-0.827687 -0.55889,-1.046198 -0.5552,-2.486842 0.005,-1.797756 0.35752,-2.704364 1.53522,-3.943716 1.21429,-1.277853 1.85565,-1.504128 4.26337,-1.504128 1.87017,0 2.21556,0.05101 2.94737,0.435262 1.56803,0.82334 2.21052,1.68734 2.21052,2.972633 0,0.883839 -0.31563,1.560519 -1.04276,2.235549 -1.06386,0.987633 -1.65754,1.172346 -3.768,1.172346 -1.72383,0 -1.91211,0.0304 -1.58921,0.25656 0.75406,0.528164 2.19106,0.940808 3.27629,0.940808 1.30765,0 2.25357,-0.353179 3.07487,-1.14806 0.32776,-0.317217 0.62706,-0.540976 0.66512,-0.497243 0.0381,0.04373 0.11919,0.867014 0.18028,1.829514 0.10655,1.678517 0.0991,1.727426 -0.18285,1.197368 -0.16166,-0.303947 -0.3209,-0.583632 -0.35386,-0.62152 -0.033,-0.03789 -0.33897,0.09574 -0.68,0.29696 -1.81661,1.071826 -4.83881,1.587427 -6.6885,1.141088 z m 0.74445,-6.327249 c 0.3432,-0.143396 0.71356,-0.428078 0.82303,-0.632626 0.29033,-0.542478 0.24327,-1.603783 -0.0831,-1.874662 -0.58335,-0.484136 -2.16118,0.353829 -2.95903,1.571502 -0.35579,0.543004 -0.23329,0.771116 0.53315,0.992766 0.83384,0.241141 0.98467,0.236043 1.68597,-0.05698 z"
     id="path66"
     inkscape:connector-curvature="0" />
  <path
     style="fill:#ffffff;stroke-width:0.18421052"
     d="m 218.86698,64.946218 0.5444,-0.620044 0.12494,-3.29443 c 0.0687,-1.811936 0.17134,-3.633593 0.22806,-4.048126 0.0968,-0.707724 0.0684,-0.768076 -0.46605,-0.989453 -0.31305,-0.129667 -0.56917,-0.294883 -0.56917,-0.367147 0,-0.129618 4.08504,-0.589747 4.20154,-0.473251 0.033,0.03304 -0.15274,0.480032 -0.41284,0.993317 -0.67,1.322176 -0.59422,1.436756 0.40209,0.607963 1.91749,-1.595095 3.77164,-2.058318 5.2923,-1.322178 1.24966,0.604951 1.78785,1.513079 1.89607,3.199402 0.10324,1.608607 -0.24444,2.993629 -1.1701,4.661291 -0.34656,0.624357 -0.63011,1.177468 -0.63011,1.229135 0,0.05167 0.31085,0.201247 0.69079,0.3324 l 0.69079,0.23846 -0.92106,0.128109 c -0.92013,0.127982 -3.5921,0.207744 -3.5921,0.10723 0,-0.02924 0.16579,-0.378342 0.36842,-0.775792 0.68706,-1.347626 0.34102,-3.217322 -0.66635,-3.60032 -1.56449,-0.594818 -2.82262,1.48698 -2.03617,3.36921 l 0.28388,0.679426 -0.58673,0.09186 c -0.94278,0.147607 -3.66068,0.472979 -3.9509,0.472979 -0.17688,0 -0.0836,-0.207897 0.2783,-0.620044 z"
     id="path68"
     inkscape:connector-curvature="0" />
  <path
     style="fill:#ffffff;stroke-width:0.18421052"
     d="m 235.63809,65.384187 c -1.24523,-0.375368 -2.1733,-1.510405 -2.45269,-2.999651 -0.0699,-0.372762 -0.0262,-1.388967 0.0972,-2.258235 0.12339,-0.869268 0.18692,-1.617909 0.14119,-1.663647 -0.0457,-0.04574 -0.3491,-0.02997 -0.67413,0.03503 -0.44883,0.08977 -0.68799,0.300528 -0.99436,0.87628 l -0.40339,0.758085 -0.12205,-1.565789 c -0.0671,-0.861184 -0.13027,-2.057943 -0.14032,-2.659464 l -0.0183,-1.093675 0.51666,0.494991 c 0.43539,0.417123 0.67945,0.49499 1.55149,0.49499 h 1.03482 l 0.57831,-1.861439 c 0.31807,-1.023791 0.5411,-1.898645 0.49562,-1.944121 -0.0455,-0.04548 -0.48579,-0.235766 -0.97847,-0.422867 l -0.89579,-0.340185 0.82894,-0.102898 c 1.14739,-0.142426 6.63158,-0.344623 6.63158,-0.2445 0,0.04486 -0.44378,0.350526 -0.98618,0.679254 l -0.98618,0.597688 -0.30452,1.589271 c -0.16748,0.874099 -0.30396,1.662791 -0.30329,1.752649 6.8e-4,0.08986 0.54141,0.120017 1.20164,0.06702 1.24999,-0.100337 1.19056,-0.06288 2.24767,-1.416694 0.18138,-0.232287 0.22553,0.01672 0.23027,1.298743 0.003,0.872373 -0.0469,1.971398 -0.11149,2.442279 l -0.11735,0.856148 -0.58136,-0.672532 -0.58136,-0.672533 -1.2796,0.164464 -1.27959,0.164464 -0.15323,1.013157 c -0.18631,1.231987 -0.0515,2.870796 0.2679,3.255598 0.64562,0.777923 2.051,0.642444 3.36843,-0.324718 0.39812,-0.292274 0.76384,-0.491418 0.81272,-0.442544 0.10409,0.104093 0.57525,3.14314 0.57094,3.682717 -0.002,0.30291 -0.10816,0.2458 -0.5947,-0.321173 l -0.59177,-0.689594 -0.82895,0.554331 c -1.45443,0.972604 -3.70077,1.369924 -5.19633,0.919098 z"
     id="path70"
     inkscape:connector-curvature="0" />
</svg>
